<svg width="272" height="294" viewBox="0 0 272 294" fill="none" xmlns="http://www.w3.org/2000/svg">
    <circle cx="143.5" cy="107.5" r="100" stroke="white" stroke-width="15"/>
    <path d="M96 60.5V126.5C107.167 126.5 129.5 119.5 129.5 91.5H157C157.5 103.167 162.3 126.5 177.5 126.5H192V60.5H96Z" fill="white" stroke="white" stroke-width="5"/>
    <path d="M110.5 72.5V91.5" stroke="black" stroke-width="3"/>
    <path d="M119 82.5H100.5" stroke="black" stroke-width="3"/>
    <circle cx="171" cy="76" r="3" fill="black"/>
    <circle cx="171" cy="88" r="3" fill="black"/>
    <circle cx="182" cy="76" r="3" fill="black"/>
    <circle cx="182" cy="88" r="3" fill="black"/>
    <path d="M48.5391 266.277C48.5391 263.035 49.3073 260.424 50.8438 258.445C52.3932 256.466 54.4766 255.477 57.0938 255.477C59.4115 255.477 61.2148 256.271 62.5039 257.859L62.7383 255.867H67.8555V276.297C67.8555 278.146 67.4323 279.754 66.5859 281.121C65.7526 282.488 64.5742 283.53 63.0508 284.246C61.5273 284.962 59.7435 285.32 57.6992 285.32C56.1497 285.32 54.6393 285.008 53.168 284.383C51.6966 283.771 50.5833 282.977 49.8281 282L52.3281 278.562C53.7344 280.138 55.4401 280.926 57.4453 280.926C58.9427 280.926 60.1081 280.522 60.9414 279.715C61.7747 278.921 62.1914 277.788 62.1914 276.316V275.184C60.8893 276.655 59.1771 277.391 57.0547 277.391C54.5156 277.391 52.4583 276.401 50.8828 274.422C49.3203 272.43 48.5391 269.793 48.5391 266.512V266.277ZM54.1836 266.688C54.1836 268.602 54.5677 270.105 55.3359 271.199C56.1042 272.28 57.1589 272.82 58.5 272.82C60.2188 272.82 61.4492 272.176 62.1914 270.887V262C61.4362 260.711 60.2188 260.066 58.5391 260.066C57.1849 260.066 56.1172 260.62 55.3359 261.727C54.5677 262.833 54.1836 264.487 54.1836 266.688ZM84.457 277C84.1966 276.492 84.0078 275.861 83.8906 275.105C82.5234 276.629 80.7461 277.391 78.5586 277.391C76.4883 277.391 74.7695 276.792 73.4023 275.594C72.0482 274.396 71.3711 272.885 71.3711 271.062C71.3711 268.823 72.1979 267.104 73.8516 265.906C75.5182 264.708 77.9206 264.103 81.0586 264.09H83.6562V262.879C83.6562 261.902 83.4023 261.121 82.8945 260.535C82.3997 259.949 81.612 259.656 80.5312 259.656C79.5807 259.656 78.832 259.884 78.2852 260.34C77.7513 260.796 77.4844 261.421 77.4844 262.215H71.8398C71.8398 260.991 72.2174 259.858 72.9727 258.816C73.7279 257.775 74.7956 256.961 76.1758 256.375C77.556 255.776 79.1055 255.477 80.8242 255.477C83.4284 255.477 85.4922 256.134 87.0156 257.449C88.5521 258.751 89.3203 260.587 89.3203 262.957V272.117C89.3333 274.122 89.6133 275.639 90.1602 276.668V277H84.457ZM79.7891 273.074C80.6224 273.074 81.3906 272.892 82.0938 272.527C82.7969 272.15 83.3177 271.648 83.6562 271.023V267.391H81.5469C78.7214 267.391 77.2174 268.367 77.0352 270.32L77.0156 270.652C77.0156 271.355 77.263 271.935 77.7578 272.391C78.2526 272.846 78.9297 273.074 79.7891 273.074ZM98.9492 255.867L99.125 258.23C100.622 256.395 102.647 255.477 105.199 255.477C107.921 255.477 109.789 256.551 110.805 258.699C112.289 256.551 114.405 255.477 117.152 255.477C119.444 255.477 121.15 256.147 122.27 257.488C123.389 258.816 123.949 260.822 123.949 263.504V277H118.285V263.523C118.285 262.326 118.051 261.453 117.582 260.906C117.113 260.346 116.286 260.066 115.102 260.066C113.409 260.066 112.237 260.874 111.586 262.488L111.605 277H105.961V263.543C105.961 262.319 105.72 261.434 105.238 260.887C104.757 260.34 103.936 260.066 102.777 260.066C101.176 260.066 100.017 260.73 99.3008 262.059V277H93.6562V255.867H98.9492ZM138.031 277.391C134.932 277.391 132.406 276.44 130.453 274.539C128.513 272.638 127.543 270.105 127.543 266.941V266.395C127.543 264.272 127.953 262.378 128.773 260.711C129.594 259.031 130.753 257.742 132.25 256.844C133.76 255.932 135.479 255.477 137.406 255.477C140.297 255.477 142.569 256.388 144.223 258.211C145.889 260.034 146.723 262.618 146.723 265.965V268.27H133.266C133.448 269.65 133.995 270.757 134.906 271.59C135.831 272.423 136.996 272.84 138.402 272.84C140.577 272.84 142.276 272.052 143.5 270.477L146.273 273.582C145.427 274.78 144.281 275.717 142.836 276.395C141.391 277.059 139.789 277.391 138.031 277.391ZM137.387 260.047C136.267 260.047 135.355 260.424 134.652 261.18C133.962 261.935 133.52 263.016 133.324 264.422H141.176V263.973C141.15 262.723 140.811 261.759 140.16 261.082C139.509 260.392 138.585 260.047 137.387 260.047ZM155.902 277H150.238V247H155.902V277ZM172.816 277C172.556 276.492 172.367 275.861 172.25 275.105C170.883 276.629 169.105 277.391 166.918 277.391C164.848 277.391 163.129 276.792 161.762 275.594C160.408 274.396 159.73 272.885 159.73 271.062C159.73 268.823 160.557 267.104 162.211 265.906C163.878 264.708 166.28 264.103 169.418 264.09H172.016V262.879C172.016 261.902 171.762 261.121 171.254 260.535C170.759 259.949 169.971 259.656 168.891 259.656C167.94 259.656 167.191 259.884 166.645 260.34C166.111 260.796 165.844 261.421 165.844 262.215H160.199C160.199 260.991 160.577 259.858 161.332 258.816C162.087 257.775 163.155 256.961 164.535 256.375C165.915 255.776 167.465 255.477 169.184 255.477C171.788 255.477 173.852 256.134 175.375 257.449C176.911 258.751 177.68 260.587 177.68 262.957V272.117C177.693 274.122 177.973 275.639 178.52 276.668V277H172.816ZM168.148 273.074C168.982 273.074 169.75 272.892 170.453 272.527C171.156 272.15 171.677 271.648 172.016 271.023V267.391H169.906C167.081 267.391 165.577 268.367 165.395 270.32L165.375 270.652C165.375 271.355 165.622 271.935 166.117 272.391C166.612 272.846 167.289 273.074 168.148 273.074ZM187.211 255.867L187.387 258.309C188.897 256.421 190.922 255.477 193.461 255.477C195.701 255.477 197.367 256.134 198.461 257.449C199.555 258.764 200.115 260.73 200.141 263.348V277H194.496V263.484C194.496 262.286 194.236 261.421 193.715 260.887C193.194 260.34 192.328 260.066 191.117 260.066C189.529 260.066 188.337 260.743 187.543 262.098V277H181.898V255.867H187.211ZM203.559 266.277C203.559 262.983 204.294 260.359 205.766 258.406C207.25 256.453 209.275 255.477 211.84 255.477C213.897 255.477 215.596 256.245 216.938 257.781V247H222.602V277H217.504L217.23 274.754C215.824 276.512 214.014 277.391 211.801 277.391C209.314 277.391 207.315 276.414 205.805 274.461C204.307 272.495 203.559 269.767 203.559 266.277ZM209.203 266.688C209.203 268.667 209.548 270.184 210.238 271.238C210.928 272.293 211.931 272.82 213.246 272.82C214.991 272.82 216.221 272.085 216.938 270.613V262.273C216.234 260.802 215.017 260.066 213.285 260.066C210.564 260.066 209.203 262.273 209.203 266.688Z" fill="#A5A3A3"/>
</svg>
